<svg xmlns="http://www.w3.org/2000/svg" viewBox="0 0 73 106.3" enable-background="new 0 0 73 106.3"><style type="text/css">.st0{fill:#FFFFFF;} .st1{font-family:&apos;Roboto-Regular&apos;;} .st2{font-size:11px;} .st3{fill:none;stroke:#FFFFFF;stroke-width:2;stroke-miterlimit:10;} .st4{fill:none;stroke:#4DCBBF;stroke-width:2;stroke-miterlimit:10;}</style><text transform="translate(3.277 100.855)" class="st0 st1 st2">PAGE MOVE</text><path class="st3" d="M30.7 47.6v-24c0-2.6-1.3-4.4-4.7-4.4s-4.7 1.8-4.7 4.4v35.4M47.9 51.4v-8.6c0-3.6-.9-6-4.1-6.3-2.7-.3-4.1.8-4.1.8M47.9 41.4c4.8-.8 6.3 1.8 6.5 6s.4 6.4.4 11.7c0 12.7-7 20-7 20M20.8 44.3c-.5-.2-2-.3-3-.3-2.4 0-4.2 1.9-4.5 5.2 0 0-.5 3.5-.5 8.1-.1 5.9 1 8.6 3.3 12 3.2 4.7 10 10 10 10M40.1 48.4v-8c0-3.6-1-6.9-4.7-6.9-3.2 0-4.7.8-4.7.8"/><path class="st4" d="M50.9 9.9v18M47.2 12.7l3.7-3.8 3.7 3.8M54.6 25.1l-3.7 3.7-3.7-3.7M41.9 18.9h18.1M44.7 22.6l-3.7-3.7 3.7-3.7M57.2 15.2l3.7 3.7-3.7 3.7"/></svg>